<svg width="48" height="48" viewBox="0 0 48 48" fill="none" xmlns="http://www.w3.org/2000/svg">
<path d="M18 3C18 4.65938 19.3406 6 21 6C32.5969 6 42 15.4031 42 27C42 28.6594 43.3406 30 45 30C46.6594 30 48 28.6594 48 27C48 12.0844 35.9156 0 21 0C19.3406 0 18 1.34062 18 3ZM18 12C18 13.6594 19.3406 15 21 15C27.6281 15 33 20.3719 33 27C33 28.6594 34.3406 30 36 30C37.6594 30 39 28.6594 39 27C39 17.0625 30.9375 9 21 9C19.3406 9 18 10.3406 18 12ZM9 13.5C9 11.0156 6.98438 9 4.5 9C2.01562 9 0 11.0156 0 13.5V34.5C0 41.9531 6.04688 48 13.5 48C20.9531 48 27 41.9531 27 34.5C27 27.0469 20.9531 21 13.5 21H12V30H13.5C15.9844 30 18 32.0156 18 34.5C18 36.9844 15.9844 39 13.5 39C11.0156 39 9 36.9844 9 34.5V13.5Z" fill="white"/>
</svg>
