<svg width="43" height="42" viewBox="0 0 43 42" fill="none" xmlns="http://www.w3.org/2000/svg">
<path d="M22.016 42C15.901 42 10.7025 39.9028 6.4204 35.7083C2.1383 31.5138 -0.00183348 26.4225 1.17858e-06 20.4345C1.17858e-06 15.9956 1.29619 11.9207 3.88857 8.2096C6.48278 4.49495 10.1613 1.82353 14.9241 0.195335C15.4855 0.00304307 15.9772 -0.047277 16.3991 0.0443763C16.8211 0.13603 17.1706 0.314844 17.4476 0.580818C17.7247 0.846792 17.9008 1.18824 17.976 1.60518C18.0494 2.02391 17.9916 2.4633 17.8027 2.92337C17.4467 3.78059 17.188 4.6531 17.0266 5.54088C16.8651 6.42865 16.7853 7.34968 16.7872 8.30395C16.7872 13.1077 18.4962 17.1844 21.9141 20.5343C25.3339 23.8823 29.4959 25.5563 34.3999 25.5563C35.6805 25.5563 36.852 25.4233 37.9142 25.1574C38.9783 24.8914 39.8847 24.6757 40.6332 24.5104C41.0332 24.4385 41.3992 24.4475 41.7312 24.5374C42.0633 24.6272 42.3312 24.7854 42.5348 25.0118C42.7458 25.2364 42.8889 25.5132 42.9641 25.8421C43.0394 26.1709 42.9962 26.5456 42.8348 26.9662C41.523 31.3691 38.9517 34.975 35.121 37.784C31.2902 40.5929 26.9218 41.9982 22.016 42Z" fill="white"/>
</svg>
